<svg width="20" height="20" viewBox="0 0 20 20" fill="none" xmlns="http://www.w3.org/2000/svg">
<g id="Facebook">
<path id="Vector" d="M19.3106 10.0312C19.3106 4.78457 15.0361 0.53125 9.76334 0.53125C4.49056 0.53125 0.216064 4.78449 0.216064 10.0312C0.216064 14.7729 3.70738 18.7031 8.27158 19.4158V12.7773H5.84746V10.0312H8.27158V7.93826C8.27158 5.55733 9.69695 4.24218 11.8777 4.24218C12.9223 4.24218 14.0149 4.42772 14.0149 4.42772V6.76561H12.811C11.6249 6.76561 11.2551 7.49792 11.2551 8.24924V10.0312H13.903L13.4797 12.7773H11.2551V19.4158C15.8193 18.7031 19.3106 14.773 19.3106 10.0312Z" fill="#1877F2"/>
<path id="Vector_2" d="M13.4799 12.7773L13.9032 10.0312H11.2553V8.24926C11.2553 7.49787 11.6252 6.76562 12.8112 6.76562H14.0151V4.42773C14.0151 4.42773 12.9225 4.24219 11.8779 4.24219C9.6972 4.24219 8.27182 5.55734 8.27182 7.93828V10.0312H5.84772V12.7773H8.27182V19.4158C8.76531 19.4928 9.26407 19.5314 9.76358 19.5312C10.2631 19.5314 10.7619 19.4928 11.2553 19.4158V12.7773H13.4799Z" fill="white"/>
</g>
</svg>
