<svg width="20" height="20" viewBox="0 0 20 20" fill="none" xmlns="http://www.w3.org/2000/svg">
<path d="M14.7629 0.03125H4.66919C2.2098 0.03125 0.216064 2.02498 0.216064 4.48438V14.5781C0.216064 17.0375 2.2098 19.0312 4.66919 19.0312H14.7629C17.2223 19.0312 19.2161 17.0375 19.2161 14.5781V4.48438C19.2161 2.02498 17.2223 0.03125 14.7629 0.03125Z" fill="url(#paint0_radial_26_29)"/>
<path d="M14.7629 0.03125H4.66919C2.2098 0.03125 0.216064 2.02498 0.216064 4.48438V14.5781C0.216064 17.0375 2.2098 19.0312 4.66919 19.0312H14.7629C17.2223 19.0312 19.2161 17.0375 19.2161 14.5781V4.48438C19.2161 2.02498 17.2223 0.03125 14.7629 0.03125Z" fill="url(#paint1_radial_26_29)"/>
<path d="M9.71673 2.10938C7.7011 2.10938 7.44809 2.11821 6.65647 2.1542C5.86634 2.19042 5.32699 2.31548 4.85511 2.49902C4.3669 2.68858 3.95283 2.94218 3.54032 3.35484C3.12744 3.76742 2.87384 4.18149 2.68369 4.66948C2.49963 5.14151 2.37442 5.68108 2.33887 6.47084C2.30347 7.26253 2.29419 7.51562 2.29419 9.53132C2.29419 11.547 2.3031 11.7992 2.33902 12.5908C2.37538 13.381 2.50044 13.9203 2.68384 14.3922C2.87354 14.8804 3.12715 15.2945 3.5398 15.707C3.95224 16.1199 4.3663 16.3741 4.85414 16.5636C5.3264 16.7472 5.86582 16.8722 6.6558 16.9084C7.44749 16.9444 7.70028 16.9533 9.71584 16.9533C11.7317 16.9533 11.9839 16.9444 12.7755 16.9084C13.5656 16.8722 14.1056 16.7472 14.5778 16.5636C15.0658 16.3741 15.4793 16.1199 15.8917 15.707C16.3045 15.2945 16.5581 14.8804 16.7483 14.3924C16.9307 13.9203 17.056 13.3808 17.0931 12.591C17.1287 11.7994 17.1379 11.547 17.1379 9.53132C17.1379 7.51562 17.1287 7.26268 17.0931 6.47099C17.056 5.68086 16.9307 5.14158 16.7483 4.6697C16.5581 4.18149 16.3045 3.76742 15.8917 3.35484C15.4789 2.94204 15.066 2.68843 14.5774 2.4991C14.1042 2.31548 13.5646 2.19035 12.7745 2.1542C11.9828 2.11821 11.7307 2.10938 9.71443 2.10938H9.71673ZM9.05092 3.44687C9.24856 3.44657 9.46906 3.44687 9.71673 3.44687C11.6984 3.44687 11.9333 3.454 12.7158 3.48955C13.4395 3.52265 13.8322 3.64355 14.0939 3.74516C14.4402 3.87964 14.6872 4.04047 14.9468 4.30031C15.2065 4.56008 15.3673 4.80745 15.5022 5.15383C15.6038 5.41508 15.7248 5.80784 15.7578 6.53148C15.7933 7.31389 15.801 7.54887 15.801 9.52962C15.801 11.5104 15.7933 11.7454 15.7578 12.5278C15.7247 13.2514 15.6038 13.6442 15.5022 13.9055C15.3677 14.2519 15.2065 14.4985 14.9468 14.7581C14.687 15.0179 14.4404 15.1786 14.0939 15.3132C13.8325 15.4152 13.4395 15.5358 12.7158 15.5689C11.9334 15.6045 11.6984 15.6122 9.71673 15.6122C7.73494 15.6122 7.50004 15.6045 6.7177 15.5689C5.99407 15.5355 5.6013 15.4146 5.33946 15.313C4.99315 15.1785 4.74571 15.0177 4.48594 14.758C4.22618 14.4982 4.06542 14.2514 3.93056 13.9049C3.82896 13.6436 3.70791 13.2508 3.67496 12.5272C3.6394 11.7448 3.63228 11.5098 3.63228 9.52776C3.63228 7.54582 3.6394 7.31204 3.67496 6.52962C3.70806 5.80599 3.82896 5.41322 3.93056 5.1516C4.06512 4.80522 4.22618 4.55785 4.48602 4.29809C4.74578 4.03832 4.99315 3.87749 5.33953 3.74271C5.60115 3.64066 5.99407 3.52005 6.7177 3.4868C7.40237 3.45585 7.6677 3.44657 9.05092 3.44502V3.44687ZM13.6785 4.6792C13.1868 4.6792 12.7879 5.07775 12.7879 5.56953C12.7879 6.06123 13.1868 6.46015 13.6785 6.46015C14.1702 6.46015 14.5692 6.06123 14.5692 5.56953C14.5692 5.07783 14.1702 4.6789 13.6785 4.6789V4.6792ZM9.71673 5.71982C7.61189 5.71982 5.9053 7.42641 5.9053 9.53132C5.9053 11.6362 7.61189 13.342 9.71673 13.342C11.8217 13.342 13.5276 11.6362 13.5276 9.53132C13.5276 7.42648 11.8215 5.71982 9.71658 5.71982H9.71673ZM9.71673 7.05732C11.083 7.05732 12.1907 8.16488 12.1907 9.53132C12.1907 10.8976 11.083 12.0053 9.71673 12.0053C8.35037 12.0053 7.2428 10.8976 7.2428 9.53132C7.2428 8.16488 8.35037 7.05732 9.71673 7.05732Z" fill="white"/>
<defs>
<radialGradient id="paint0_radial_26_29" cx="0" cy="0" r="1" gradientUnits="userSpaceOnUse" gradientTransform="translate(5.26294 20.4946) rotate(-90) scale(18.8304 17.5138)">
<stop stop-color="#FFDD55"/>
<stop offset="0.1" stop-color="#FFDD55"/>
<stop offset="0.5" stop-color="#FF543E"/>
<stop offset="1" stop-color="#C837AB"/>
</radialGradient>
<radialGradient id="paint1_radial_26_29" cx="0" cy="0" r="1" gradientUnits="userSpaceOnUse" gradientTransform="translate(-2.96651 1.39992) rotate(78.681) scale(8.4173 34.6964)">
<stop stop-color="#3771C8"/>
<stop offset="0.128" stop-color="#3771C8"/>
<stop offset="1" stop-color="#6600FF" stop-opacity="0"/>
</radialGradient>
</defs>
</svg>
