<svg width="20" height="20" viewBox="0 0 20 20" fill="none" xmlns="http://www.w3.org/2000/svg">
<g id="LinkedIn">
<path id="Vector" d="M14.7629 0.53125H4.66919C2.2098 0.53125 0.216064 2.52498 0.216064 4.98438V15.0781C0.216064 17.5375 2.2098 19.5312 4.66919 19.5312H14.7629C17.2223 19.5312 19.2161 17.5375 19.2161 15.0781V4.98438C19.2161 2.52498 17.2223 0.53125 14.7629 0.53125Z" fill="white"/>
<path id="Vector_2" d="M14.7629 0.53125H4.66919C2.2098 0.53125 0.216064 2.52498 0.216064 4.98438V15.0781C0.216064 17.5375 2.2098 19.5312 4.66919 19.5312H14.7629C17.2223 19.5312 19.2161 17.5375 19.2161 15.0781V4.98438C19.2161 2.52498 17.2223 0.53125 14.7629 0.53125Z" fill="#0A66C2"/>
<path id="Vector_3" d="M13.9254 16.6876H16.0978C16.1765 16.6876 16.252 16.6563 16.3077 16.6006C16.3633 16.545 16.3946 16.4695 16.3946 16.3908L16.3958 11.8009C16.3958 9.40195 15.8788 7.55798 13.0754 7.55798C12.0096 7.51835 11.0046 8.06772 10.4623 8.98506C10.4597 8.98952 10.4556 8.99298 10.4508 8.99493C10.446 8.99688 10.4407 8.9972 10.4357 8.99584C10.4307 8.99449 10.4263 8.99154 10.4231 8.98743C10.42 8.98333 10.4182 8.9783 10.4182 8.97311V8.07633C10.4182 7.99759 10.3869 7.92208 10.3312 7.86641C10.2755 7.81073 10.2 7.77945 10.1213 7.77945H8.05972C7.98099 7.77945 7.90548 7.81073 7.8498 7.86641C7.79413 7.92208 7.76285 7.99759 7.76285 8.07633V16.3903C7.76285 16.469 7.79413 16.5446 7.8498 16.6002C7.90548 16.6559 7.98099 16.6872 8.05972 16.6872H10.232C10.3107 16.6872 10.3862 16.6559 10.4419 16.6002C10.4976 16.5446 10.5288 16.469 10.5288 16.3903V12.2806C10.5288 11.1186 10.7493 9.99318 12.1899 9.99318C13.6101 9.99318 13.6285 11.3229 13.6285 12.3559V16.3907C13.6285 16.4694 13.6598 16.5449 13.7155 16.6006C13.7711 16.6563 13.8466 16.6876 13.9254 16.6876ZM3.03638 4.95669C3.03638 5.8373 3.76127 6.56182 4.64188 6.56182C5.52226 6.56175 6.24671 5.83678 6.24671 4.95639C6.24656 4.07601 5.52204 3.35156 4.64158 3.35156C3.7609 3.35156 3.03638 4.07616 3.03638 4.95669ZM3.55287 16.6876H5.72799C5.80673 16.6876 5.88224 16.6563 5.93792 16.6006C5.99359 16.5449 6.02487 16.4694 6.02487 16.3907V8.07633C6.02487 7.99759 5.99359 7.92208 5.93792 7.86641C5.88224 7.81073 5.80673 7.77945 5.72799 7.77945H3.55287C3.47413 7.77945 3.39862 7.81073 3.34294 7.86641C3.28727 7.92208 3.25599 7.99759 3.25599 8.07633V16.3907C3.25599 16.4694 3.28727 16.5449 3.34294 16.6006C3.39862 16.6563 3.47413 16.6876 3.55287 16.6876Z" fill="white"/>
</g>
</svg>
