<svg width="218" height="29" viewBox="0 0 218 29" fill="none" xmlns="http://www.w3.org/2000/svg">
<path d="M23.901 26.51C24.308 26.917 24.308 27.62 23.901 28.027C23.679 28.249 23.42 28.36 23.124 28.36C22.865 28.36 22.569 28.249 22.347 28.027C19.646 25.326 16.02 23.846 12.172 23.846C8.361 23.846 4.735 25.326 1.997 28.027C1.59 28.471 0.887 28.471 0.48 28.027C0.073 27.62 0.073 26.917 0.48 26.51C3.625 23.402 7.769 21.663 12.172 21.663C16.612 21.663 20.756 23.402 23.901 26.51ZM3.44 19.85C3.44 19.813 3.44 19.776 3.44 19.776C3.44 19.702 3.403 19.665 3.403 19.628C3.403 19.591 3.44 19.517 3.44 19.48C3.44 19.443 3.44 19.443 3.44 19.406C3.44 19.332 3.477 19.295 3.514 19.221L11.173 1.202C11.358 0.831998 11.765 0.572999 12.172 0.572999C12.616 0.572999 13.023 0.831998 13.171 1.202L20.867 19.221C20.904 19.295 20.904 19.332 20.941 19.406C20.941 19.443 20.941 19.443 20.941 19.48C20.941 19.517 20.941 19.591 20.941 19.628C20.941 19.665 20.941 19.702 20.941 19.739C20.941 19.776 20.941 19.813 20.941 19.85C20.904 19.924 20.904 19.961 20.867 20.035V20.072C20.83 20.146 20.793 20.22 20.719 20.294C20.719 20.331 20.682 20.331 20.682 20.331C20.608 20.405 20.534 20.479 20.46 20.553C20.46 20.553 20.46 20.553 20.423 20.553C20.386 20.59 20.349 20.627 20.275 20.627C20.275 20.627 20.238 20.664 20.201 20.664C20.201 20.664 20.164 20.664 20.127 20.664C20.053 20.701 19.942 20.738 19.868 20.738C19.757 20.738 19.683 20.701 19.609 20.664C19.572 20.664 19.535 20.664 19.535 20.664C19.498 20.664 19.461 20.664 19.461 20.627C17.13 19.702 14.688 19.221 12.172 19.221C9.656 19.221 7.214 19.702 4.92 20.627C4.846 20.664 4.772 20.701 4.698 20.701C4.624 20.701 4.55 20.738 4.513 20.738C4.439 20.738 4.402 20.701 4.365 20.701C4.328 20.701 4.328 20.701 4.291 20.701C4.217 20.701 4.143 20.664 4.069 20.627C4.069 20.627 4.032 20.627 4.032 20.59C3.995 20.59 3.921 20.553 3.884 20.516C3.884 20.516 3.847 20.479 3.81 20.479C3.773 20.442 3.773 20.442 3.736 20.405C3.699 20.368 3.699 20.331 3.662 20.331C3.625 20.294 3.625 20.257 3.588 20.22C3.588 20.183 3.551 20.146 3.551 20.109C3.514 20.072 3.514 20.072 3.514 20.035C3.477 19.998 3.44 19.924 3.44 19.85ZM12.172 4.421L6.474 17.815C8.324 17.297 10.211 17.038 12.172 17.038C14.133 17.038 16.057 17.297 17.907 17.815L12.172 4.421ZM49.5732 26.177C50.1652 26.177 50.6462 26.658 50.6462 27.25C50.6462 27.879 50.1652 28.36 49.5732 28.36H27.7062C27.1142 28.36 26.6332 27.879 26.6332 27.25V16.779C26.6332 16.187 27.1142 15.706 27.7062 15.706H41.7662V12.117C41.7662 11.525 42.2472 11.044 42.8392 11.044C43.4312 11.044 43.9122 11.525 43.9122 12.117V16.779C43.9122 17.371 43.4312 17.852 42.8392 17.852H28.7792V26.177H49.5732ZM27.7062 13.227C27.1142 13.227 26.6332 12.746 26.6332 12.117V1.646C26.6332 1.054 27.1142 0.535998 27.7062 0.535998H49.5732C50.1652 0.535998 50.6462 1.054 50.6462 1.646C50.6462 2.238 50.1652 2.719 49.5732 2.719H28.7792V12.117C28.7792 12.746 28.2982 13.227 27.7062 13.227ZM92.6724 1.646C92.6724 2.238 92.1914 2.719 91.5994 2.719H66.1804V27.287C66.1804 27.879 65.6994 28.36 65.0704 28.36C64.4784 28.36 63.9974 27.879 63.9974 27.287V2.719H54.1554C53.5634 2.719 53.0824 2.238 53.0824 1.646C53.0824 1.054 53.5634 0.572999 54.1554 0.572999H91.5994C92.1914 0.572999 92.6724 1.054 92.6724 1.646ZM91.5994 26.177C92.1914 26.177 92.6724 26.658 92.6724 27.287C92.6724 27.879 92.1914 28.36 91.5994 28.36H69.7324C69.1404 28.36 68.6224 27.879 68.6224 27.287V16.779C68.6224 16.187 69.1404 15.706 69.7324 15.706H83.7554V12.117C83.7554 11.525 84.2734 11.044 84.8654 11.044C85.4574 11.044 85.9384 11.525 85.9384 12.117V16.779C85.9384 17.371 85.4574 17.852 84.8654 17.852H70.8054V26.177H91.5994ZM68.6224 6.271C68.6224 5.679 69.1404 5.198 69.7324 5.198C70.3244 5.198 70.8054 5.679 70.8054 6.271V12.117C70.8054 12.746 70.3244 13.227 69.7324 13.227C69.1404 13.227 68.6224 12.746 68.6224 12.117V6.271ZM96.9919 8.084L112.791 26.547C113.161 27.028 113.124 27.694 112.643 28.101C112.458 28.286 112.199 28.36 111.94 28.36C111.644 28.36 111.348 28.212 111.126 27.99L97.2509 11.71V27.25C97.2509 27.879 96.7699 28.36 96.1779 28.36C95.5859 28.36 95.1049 27.879 95.1049 27.25V8.787V8.75C95.1049 8.713 95.1049 8.676 95.1049 8.639C95.1049 8.602 95.1049 8.565 95.1049 8.528C95.1419 8.491 95.1419 8.454 95.1419 8.417C95.1789 8.38 95.1789 8.38 95.1789 8.343C95.2159 8.306 95.2159 8.269 95.2529 8.232C95.2529 8.195 95.2899 8.195 95.2899 8.158C95.3269 8.121 95.3269 8.084 95.3639 8.084C95.4009 8.047 95.4009 8.01 95.4379 7.973H95.4749C95.4749 7.936 95.5119 7.936 95.5119 7.936C95.5489 7.899 95.5859 7.862 95.6229 7.862C95.6229 7.825 95.6599 7.825 95.6969 7.825C95.7339 7.788 95.7709 7.788 95.8079 7.751C95.8449 7.751 95.8819 7.751 95.9189 7.751C95.9189 7.714 95.9559 7.714 95.9929 7.714C96.0299 7.714 96.0669 7.714 96.1039 7.714C96.1409 7.714 96.1409 7.714 96.1779 7.714H96.2149C96.2519 7.714 96.2889 7.714 96.3259 7.714C96.3629 7.714 96.3999 7.714 96.4369 7.714C96.4739 7.751 96.5109 7.751 96.5109 7.751C96.5479 7.788 96.5849 7.788 96.6219 7.788C96.6589 7.825 96.6959 7.825 96.7329 7.862C96.7329 7.862 96.7699 7.899 96.8069 7.899C96.8439 7.936 96.8439 7.936 96.8809 7.973C96.9179 8.01 96.9549 8.01 96.9549 8.047C96.9919 8.047 96.9919 8.084 96.9919 8.084ZM112.606 19.221L118.859 26.547C119.266 27.028 119.192 27.694 118.748 28.101C118.563 28.286 118.304 28.36 118.045 28.36C117.749 28.36 117.453 28.212 117.231 27.99L95.3639 2.349C95.3269 2.312 95.3269 2.312 95.3269 2.275C95.2899 2.275 95.2529 2.238 95.2529 2.201C95.2159 2.164 95.2159 2.127 95.1789 2.09C95.1789 2.09 95.1789 2.053 95.1419 2.016C95.1419 1.979 95.1419 1.942 95.1049 1.905C95.1049 1.868 95.1049 1.831 95.1049 1.831C95.1049 1.757 95.1049 1.72 95.1049 1.683V1.646V1.609C95.1049 1.572 95.1049 1.535 95.1049 1.461C95.1049 1.461 95.1049 1.424 95.1049 1.387C95.1419 1.35 95.1419 1.313 95.1419 1.276C95.1789 1.239 95.1789 1.202 95.1789 1.202C95.2159 1.165 95.2159 1.128 95.2529 1.091C95.2529 1.054 95.2899 1.017 95.2899 1.017C95.3269 0.979999 95.3269 0.942999 95.3639 0.906C95.4009 0.906 95.4009 0.868998 95.4379 0.831998C95.4379 0.831998 95.4379 0.831998 95.4749 0.831998C95.4749 0.794999 95.5119 0.794999 95.5119 0.794999C95.5489 0.757999 95.5859 0.721 95.6229 0.721C95.6229 0.683998 95.6599 0.683998 95.6969 0.683998C95.7339 0.646998 95.7709 0.646998 95.8079 0.609999C95.8449 0.609999 95.8819 0.609999 95.9189 0.609999C95.9189 0.572999 95.9559 0.572999 95.9929 0.572999C96.0299 0.572999 96.0669 0.572999 96.1039 0.572999C96.1409 0.572999 96.1409 0.572999 96.1779 0.572999H109.535C114.826 0.572999 119.118 4.865 119.118 10.156C119.118 14.3 116.417 17.926 112.606 19.221ZM98.5089 2.719L111.052 17.408C114.456 16.705 116.972 13.671 116.972 10.156C116.972 6.049 113.642 2.719 109.535 2.719H98.5089ZM144.494 0.535998C145.086 0.535998 145.567 1.054 145.567 1.646V27.287C145.567 27.731 145.308 28.138 144.864 28.286C144.753 28.323 144.605 28.36 144.494 28.36C144.198 28.36 143.865 28.212 143.68 27.99L121.813 2.349C121.406 1.905 121.443 1.202 121.924 0.831998C122.368 0.424999 123.071 0.461999 123.441 0.942999L143.421 24.327V1.646C143.421 1.054 143.902 0.535998 144.494 0.535998ZM123.441 8.084L139.24 26.547C139.61 27.028 139.573 27.694 139.092 28.101C138.907 28.286 138.648 28.36 138.389 28.36C138.093 28.36 137.797 28.212 137.575 27.99L123.7 11.71V27.25C123.7 27.879 123.219 28.36 122.627 28.36C122.035 28.36 121.554 27.879 121.554 27.25V8.787C121.554 8.343 121.813 7.936 122.257 7.751C122.664 7.603 123.145 7.714 123.441 8.084ZM149.076 0.572999C149.668 0.572999 150.149 1.054 150.149 1.646V27.25C150.149 27.879 149.668 28.36 149.076 28.36C148.484 28.36 148.003 27.879 148.003 27.25V1.646C148.003 1.054 148.484 0.572999 149.076 0.572999ZM175.532 0.572999C176.124 0.572999 176.605 1.054 176.605 1.646C176.605 2.238 176.124 2.719 175.532 2.719H165.69V27.25C165.69 27.879 165.209 28.36 164.58 28.36C163.988 28.36 163.507 27.879 163.507 27.25V2.719H153.665C153.073 2.719 152.592 2.238 152.592 1.646C152.592 1.054 153.073 0.572999 153.665 0.572999H175.532ZM192.027 26.51C192.434 26.917 192.434 27.62 192.027 28.027C191.805 28.249 191.546 28.36 191.25 28.36C190.991 28.36 190.695 28.249 190.473 28.027C187.772 25.326 184.146 23.846 180.298 23.846C176.487 23.846 172.861 25.326 170.123 28.027C169.716 28.471 169.013 28.471 168.606 28.027C168.199 27.62 168.199 26.917 168.606 26.51C171.751 23.402 175.895 21.663 180.298 21.663C184.738 21.663 188.882 23.402 192.027 26.51ZM171.566 19.85C171.566 19.813 171.566 19.776 171.566 19.776C171.566 19.702 171.529 19.665 171.529 19.628C171.529 19.591 171.566 19.517 171.566 19.48C171.566 19.443 171.566 19.443 171.566 19.406C171.566 19.332 171.603 19.295 171.64 19.221L179.299 1.202C179.484 0.831998 179.891 0.572999 180.298 0.572999C180.742 0.572999 181.149 0.831998 181.297 1.202L188.993 19.221C189.03 19.295 189.03 19.332 189.067 19.406C189.067 19.443 189.067 19.443 189.067 19.48C189.067 19.517 189.067 19.591 189.067 19.628C189.067 19.665 189.067 19.702 189.067 19.739C189.067 19.776 189.067 19.813 189.067 19.85C189.03 19.924 189.03 19.961 188.993 20.035V20.072C188.956 20.146 188.919 20.22 188.845 20.294C188.845 20.331 188.808 20.331 188.808 20.331C188.734 20.405 188.66 20.479 188.586 20.553C188.586 20.553 188.586 20.553 188.549 20.553C188.512 20.59 188.475 20.627 188.401 20.627C188.401 20.627 188.364 20.664 188.327 20.664C188.327 20.664 188.29 20.664 188.253 20.664C188.179 20.701 188.068 20.738 187.994 20.738C187.883 20.738 187.809 20.701 187.735 20.664C187.698 20.664 187.661 20.664 187.661 20.664C187.624 20.664 187.587 20.664 187.587 20.627C185.256 19.702 182.814 19.221 180.298 19.221C177.782 19.221 175.34 19.702 173.046 20.627C172.972 20.664 172.898 20.701 172.824 20.701C172.75 20.701 172.676 20.738 172.639 20.738C172.565 20.738 172.528 20.701 172.491 20.701C172.454 20.701 172.454 20.701 172.417 20.701C172.343 20.701 172.269 20.664 172.195 20.627C172.195 20.627 172.158 20.627 172.158 20.59C172.121 20.59 172.047 20.553 172.01 20.516C172.01 20.516 171.973 20.479 171.936 20.479C171.899 20.442 171.899 20.442 171.862 20.405C171.825 20.368 171.825 20.331 171.788 20.331C171.751 20.294 171.751 20.257 171.714 20.22C171.714 20.183 171.677 20.146 171.677 20.109C171.64 20.072 171.64 20.072 171.64 20.035C171.603 19.998 171.566 19.924 171.566 19.85ZM180.298 4.421L174.6 17.815C176.45 17.297 178.337 17.038 180.298 17.038C182.259 17.038 184.183 17.297 186.033 17.815L180.298 4.421ZM212.378 15.447C215.153 16.335 217.003 18.851 217.003 21.774C217.003 25.4 214.08 28.36 210.417 28.36H199.502C195.839 28.36 192.916 25.4 192.916 21.774C192.916 21.145 193.397 20.664 193.989 20.664C194.581 20.664 195.062 21.145 195.062 21.774C195.062 24.216 197.06 26.177 199.502 26.177H210.417C212.859 26.177 214.857 24.216 214.857 21.774C214.857 19.813 213.599 18.111 211.749 17.556L197.541 13.449C194.766 12.561 192.916 10.045 192.916 7.159C192.916 3.496 195.839 0.572999 199.502 0.572999H210.417C214.08 0.572999 217.003 3.496 217.003 7.159C217.003 7.751 216.522 8.232 215.93 8.232C215.338 8.232 214.857 7.751 214.857 7.159C214.857 4.717 212.859 2.719 210.417 2.719H199.502C197.06 2.719 195.062 4.717 195.062 7.159C195.062 9.083 196.32 10.785 198.17 11.377L212.378 15.447Z" fill="black"/>
</svg>
