<svg width="20" height="20" viewBox="0 0 20 20" fill="none" xmlns="http://www.w3.org/2000/svg">
<path d="M14.7629 0.03125H4.66919C2.2098 0.03125 0.216064 2.02498 0.216064 4.48438V14.5781C0.216064 17.0375 2.2098 19.0312 4.66919 19.0312H14.7629C17.2223 19.0312 19.2161 17.0375 19.2161 14.5781V4.48438C19.2161 2.02498 17.2223 0.03125 14.7629 0.03125Z" fill="white"/>
<path d="M14.7629 0.03125H4.66919C2.2098 0.03125 0.216064 2.02498 0.216064 4.48438V14.5781C0.216064 17.0375 2.2098 19.0312 4.66919 19.0312H14.7629C17.2223 19.0312 19.2161 17.0375 19.2161 14.5781V4.48438C19.2161 2.02498 17.2223 0.03125 14.7629 0.03125Z" fill="#1D9BF0"/>
<path d="M15.028 6.81566C15.0362 6.93345 15.0362 7.05123 15.0362 7.17013C15.0362 10.7918 12.2791 14.9687 7.23768 14.9687V14.9664C5.74834 14.9686 4.28986 14.542 3.03638 13.7377C3.25295 13.7638 3.47056 13.7768 3.68876 13.7773C4.92314 13.7783 6.12201 13.3642 7.09273 12.6018C6.5208 12.5909 5.96654 12.4017 5.50745 12.0604C5.04835 11.7192 4.70737 11.243 4.53218 10.6984C4.94282 10.7776 5.36615 10.7614 5.76956 10.6512C4.49092 10.3929 3.57097 9.26941 3.57097 7.96464V7.92991C3.95216 8.14222 4.37876 8.25986 4.81488 8.27294C3.61061 7.46804 3.23937 5.86588 3.96656 4.61322C4.65466 5.45998 5.5132 6.15252 6.4864 6.64585C7.4596 7.13918 8.52569 7.42227 9.61542 7.47673C9.50677 7.00903 9.52282 6.521 9.66196 6.06145C9.80111 5.6019 10.0585 5.18694 10.4083 4.85807C11.5122 3.82034 13.2484 3.87356 14.2862 4.97689C14.8999 4.85571 15.4886 4.63069 16.0267 4.31152C15.822 4.94614 15.3939 5.48482 14.8218 5.82736C15.3651 5.76335 15.8957 5.61791 16.3958 5.39593C16.0279 5.94678 15.5648 6.42751 15.028 6.81566Z" fill="white"/>
</svg>
